<?xml version="1.0" standalone="no"?>
<!DOCTYPE svg PUBLIC "-//W3C//DTD SVG 20010904//EN"
 "http://www.w3.org/TR/2001/REC-SVG-20010904/DTD/svg10.dtd">
<svg version="1.0" xmlns="http://www.w3.org/2000/svg"
 width="500.000000pt" height="500.000000pt" viewBox="0 0 500.000000 500.000000"
 preserveAspectRatio="xMidYMid meet">

<g transform="translate(0.000000,500.000000) scale(0.100000,-0.100000)"
fill="#000000" stroke="none">
<path d="M2352 4965 c-126 -39 -366 -284 -549 -560 -371 -559 -647 -1419 -680
-2117 l-6 -137 -54 -22 c-75 -30 -181 -107 -242 -176 -146 -162 -205 -429
-145 -659 35 -137 128 -286 229 -366 70 -56 196 -114 287 -132 136 -28 346
-18 508 23 74 18 80 16 80 -29 0 -33 51 -193 84 -264 66 -140 169 -246 240
-246 17 0 47 9 67 19 l35 19 31 -67 c109 -233 263 -234 375 -2 18 36 33 68 35
70 2 3 21 -5 42 -17 65 -37 113 -28 181 34 84 76 179 270 211 433 l12 63 31
-6 c17 -3 60 -13 96 -21 92 -22 329 -31 415 -16 266 47 460 214 541 466 35
109 43 267 20 386 -28 137 -83 238 -185 340 -71 72 -101 94 -177 130 l-91 44
-6 160 c-25 622 -275 1433 -613 1992 -159 261 -366 502 -533 617 -79 55 -154
68 -239 41z m158 -224 c383 -304 739 -971 925 -1736 65 -267 115 -592 115
-756 l0 -56 -112 -7 c-268 -17 -477 -86 -687 -226 -95 -64 -222 -178 -281
-253 l-35 -44 -101 106 c-118 124 -238 213 -379 281 -174 85 -323 123 -533
136 -96 6 -112 9 -112 24 0 65 25 301 45 435 102 659 385 1372 713 1799 111
145 273 304 336 331 36 16 49 12 106 -34z m-933 -2766 c152 -29 292 -86 421
-172 94 -62 226 -188 284 -270 l37 -51 -48 -64 c-70 -92 -210 -220 -303 -277
-164 -102 -345 -157 -538 -167 -199 -10 -326 31 -436 140 -98 98 -144 215
-144 366 0 246 138 435 360 494 73 20 267 20 367 1z m2076 -1 c90 -23 154 -59
217 -123 166 -166 195 -460 66 -656 -107 -162 -268 -233 -496 -222 -277 15
-524 119 -721 304 -63 60 -154 170 -166 200 -12 31 189 244 302 320 189 127
394 191 619 192 77 1 139 -4 179 -15z m-1167 -735 c27 -34 83 -91 124 -127 76
-67 234 -175 271 -187 20 -7 21 -12 16 -65 -9 -78 -52 -212 -93 -287 -19 -34
-39 -65 -44 -68 -5 -3 -21 15 -35 40 -47 78 -91 100 -150 73 -29 -13 -53 -54
-80 -138 -10 -30 -30 -82 -45 -115 l-27 -60 -50 129 c-57 147 -79 176 -130
176 -47 0 -67 -13 -104 -66 l-31 -46 -20 29 c-55 81 -107 225 -121 335 l-7 47
69 40 c114 67 221 152 309 246 45 48 82 92 82 96 0 21 20 5 66 -52z"/>
<path d="M2305 3516 c-131 -42 -249 -150 -291 -268 -96 -268 67 -552 344 -600
190 -32 394 73 476 246 117 248 -14 543 -277 621 -61 18 -196 19 -252 1z"/>
</g>
</svg>
